<svg xmlns="http://www.w3.org/2000/svg" viewBox="0 0 64 64" width="64" height="64">
    <!-- 背景圆形 -->
    <circle cx="32" cy="32" r="30" fill="#6DB33F" stroke="#FFF" stroke-width="2"/>

    <!-- Spring 叶子形状 -->
    <path d="M 32 12 Q 20 16 16 24 Q 18 28 20 26 Q 22 30 26 28 Q 24 32 28 30 Q 30 34 32 32 Z"
          fill="#FFF" opacity="0.9"/>
    <path d="M 32 12 Q 44 16 48 24 Q 46 28 44 26 Q 42 30 38 28 Q 40 32 36 30 Q 34 34 32 32 Z"
          fill="#FFF" opacity="0.9"/>

    <!-- AI 大脑图标 -->
    <circle cx="32" cy="40" r="8" fill="#FFF" opacity="0.95"/>
    <circle cx="28" cy="38" r="1.5" fill="#6DB33F"/>
    <circle cx="36" cy="38" r="1.5" fill="#6DB33F"/>
    <path d="M 28 42 Q 32 44 36 42" stroke="#6DB33F" stroke-width="1.5" fill="none" stroke-linecap="round"/>

    <!-- 装饰线条 -->
    <path d="M 32 18 L 32 24" stroke="#FFF" stroke-width="2" stroke-linecap="round" opacity="0.7"/>
</svg>
